<svg width="85" height="100" viewBox="0 0 85 100" fill="none" xmlns="http://www.w3.org/2000/svg">
<g clip-path="url(#clip0_634_472)">
<path d="M84.8896 74.618V2.71647C84.8896 1.18845 83.7012 0 82.1732 0H14.0917C6.87606 0 0 6.87606 0 14.0917V85.9932C0 95.2462 7.04584 100.085 14.0917 100.085H82.1732C83.7012 100.085 84.8896 98.8964 84.8896 97.3684C84.8896 95.8404 83.7012 94.652 82.1732 94.652H73.3447C73.5144 94.3124 73.5993 93.9728 73.5993 93.6333V77.8438C73.5993 77.674 73.5993 77.5042 73.5144 77.3345H82.1732C83.7012 77.3345 84.8896 76.146 84.8896 74.618ZM14.0917 94.5671C9.76231 94.5671 5.43294 91.9355 5.43294 85.9083C5.43294 79.8811 9.76231 77.2496 14.0917 77.2496H68.1664C68.1664 77.4193 68.0815 77.5891 68.0815 77.7589V93.3786C68.0815 93.7182 68.1664 94.1426 68.3362 94.3973H14.0917V94.5671ZM79.4567 71.9015H14.0917C11.0357 71.9015 7.97963 72.8353 5.43294 74.618V14.0917C5.43294 9.93209 9.8472 5.43294 14.0917 5.43294H79.4567V71.9015Z" fill="white"/>
<path d="M18.421 41.9355L29.6265 53.1409C29.966 53.4804 30.3056 53.6502 30.6451 53.82C31.0696 53.9898 31.494 54.0747 31.9185 54.0747C32.3429 54.0747 32.7674 53.9898 33.1918 53.82C33.6163 53.6502 33.9558 53.3956 34.2105 53.056L51.1035 31.9185C51.6978 31.3243 51.9524 30.4754 51.9524 29.7114C51.9524 28.8625 51.6129 28.0984 51.0186 27.5042C50.4244 26.91 49.6604 26.5704 48.8115 26.5704C47.9626 26.5704 47.1986 26.91 46.6044 27.4193L46.5195 27.5042L31.7487 46.3497L22.9202 37.4363C22.6655 37.0967 22.2411 36.8421 21.9015 36.6723C21.477 36.5025 21.0526 36.4176 20.6281 36.4176C20.2037 36.4176 19.7793 36.5025 19.3548 36.6723C18.9304 36.8421 18.5908 37.0967 18.3361 37.3514C17.9966 37.691 17.8268 38.0305 17.657 38.3701C17.4872 38.7945 17.4023 39.219 17.4023 39.6434C17.4023 40.0679 17.4872 40.4923 17.657 40.9168C17.8268 41.3412 18.0815 41.6808 18.421 41.9355Z" fill="#26DE81"/>
<path d="M46.6892 44.3124L42.6145 49.236L46.5194 53.1409C46.859 53.4805 47.1985 53.6503 47.5381 53.82C47.9626 53.9898 48.387 54.0747 48.8114 54.0747C49.2359 54.0747 49.6603 53.9898 50.0848 53.82C50.5092 53.6503 50.8488 53.3956 51.1035 53.056L67.9965 31.9185C68.3361 31.5789 68.5058 31.2394 68.6756 30.8998C68.8454 30.4754 68.9303 30.0509 68.9303 29.6265C68.9303 29.202 68.8454 28.7776 68.6756 28.3531C68.5058 27.9287 68.2512 27.5891 67.9116 27.3345C67.5721 27.0798 67.2325 26.8251 66.8081 26.6554C66.3836 26.4856 65.9592 26.4007 65.5347 26.4856C65.1103 26.4856 64.6858 26.5705 64.3463 26.8251C63.9218 26.9949 63.5822 27.2496 63.3276 27.5891L48.7266 46.3497L46.6892 44.3124Z" fill="#26DE81"/>
</g>
<defs>
<clipPath id="clip0_634_472">
<rect width="84.8896" height="100" fill="white"/>
</clipPath>
</defs>
</svg>
