<svg width="85" height="100" viewBox="0 0 85 100" fill="none" xmlns="http://www.w3.org/2000/svg">
<g clip-path="url(#clip0_634_479)">
<path d="M84.9 74.6V2.7C84.9 1.2 83.7 0 82.2 0H14.1C6.8 0 0 6.8 0 14.1V86C0 95.2 7.1 100 14.1 100H82.2C83.7 100 84.9 98.8 84.9 97.3C84.9 95.8 83.7 94.6 82.2 94.6H73.4C73.5 94.3 73.6 93.9 73.6 93.5V77.8C73.6 77.6 73.6 77.4 73.5 77.3H82.2C83.7 77.3 84.9 76.1 84.9 74.6ZM14.1 94.6C9.8 94.6 5.5 91.9 5.5 86C5.5 80 9.8 77.4 14.1 77.4H68.2C68.2 77.6 68.1 77.7 68.1 77.9V93.6C68.1 94 68.2 94.3 68.3 94.7H14.1V94.6ZM79.4 71.9H14.1C11 71.9 8 72.8 5.5 74.6V14.1C5.5 9.9 9.9 5.5 14.1 5.5H79.5V71.9H79.4Z" fill="black"/>
<path d="M46.6001 44.3L42.6001 49.3L46.5001 53.2C46.8001 53.5 47.2001 53.7 47.6001 53.9C48.0001 54.1 48.4001 54.1 48.8001 54.1C49.2001 54.1 49.6001 54 50.0001 53.8C50.4001 53.6 50.7001 53.4 51.0001 53.1L68.0001 31.9C68.3001 31.6 68.5001 31.2 68.7001 30.8C68.9001 30.4 68.9001 30 68.9001 29.6C68.9001 29.2 68.8001 28.8 68.6001 28.4C68.4001 28 68.2001 27.7 67.9001 27.4C67.6001 27.1 67.2001 26.9 66.8001 26.7C66.4001 26.6 66.0001 26.5 65.5001 26.5C65.1001 26.5 64.7001 26.6 64.3001 26.8C63.9001 27 63.6001 27.2 63.3001 27.6L48.7001 46.3L46.6001 44.3Z" fill="#26DE81"/>
<path d="M18.4 41.9L29.6 53.1C29.9 53.4 30.3 53.6 30.7 53.8C31.1 54 31.5 54 31.9 54C32.3 54 32.7 53.9 33.1 53.7C33.5 53.5 33.8 53.3 34.1 53L51 31.9C51.6 31.3 51.9 30.5 51.8 29.7C51.8 28.9 51.4 28.1 50.8 27.5C50.2 26.9 49.4 26.6 48.6 26.6C47.8 26.6 47 26.9 46.4 27.5L46.3 27.6L31.8 46.3L22.9 37.4C22.6 37.1 22.3 36.8 21.9 36.7C21.5 36.5 21.1 36.4 20.7 36.4C20.3 36.4 19.8 36.5 19.5 36.6C19.1 36.8 18.7 37 18.4 37.3C18.1 37.6 17.9 38 17.7 38.4C17.5 38.8 17.5 39.2 17.5 39.6C17.5 40 17.6 40.4 17.8 40.8C17.8 41.3 18.1 41.7 18.4 41.9Z" fill="#26DE81"/>
</g>
<defs>
<clipPath id="clip0_634_479">
<rect width="84.9" height="100" fill="white"/>
</clipPath>
</defs>
</svg>
